# xmcd
#
# Track frame offsets: 
#        150
#        513
#        19698
#        47209
#        60712
#        75060
#        91810
#        115673
#        142460
#
# Disc length: 2181 seconds
#
# Revision: 0
# Processed by: cddbd v1.5.2PL0 Copyright (c) Steve Scherf et al.
# Submitted via: ExactAudioCopy v0.99pb5
#
DISCID=65088309
DTITLE=Bobby Womack - Bobby Womack Live (67)
DYEAR=1967
DGENRE=R&B
TTITLE0=Intro
TTITLE1=Oh How I Miss You Baby
TTITLE2=California Dreamin'
TTITLE3=Something
TTITLE4=Everybody's Talkin'
TTITLE5=Medleny: Laughin And Clowin'/To live the Past
TTITLE6=A Midnight Mover
TTITLE7=The Preacher
TTITLE8=More Than I Can Stand
EXTD=
EXTT0=
EXTT1=
EXTT2=
EXTT3=
EXTT4=
EXTT5=
EXTT6=
EXTT7=
EXTT8=
PLAYORDER=
